<?xml version="1.0" standalone="no"?>
<!DOCTYPE svg PUBLIC "-//W3C//DTD SVG 20010904//EN"
 "http://www.w3.org/TR/2001/REC-SVG-20010904/DTD/svg10.dtd">
<svg version="1.0" xmlns="http://www.w3.org/2000/svg"
 width="720.000000pt" height="720.000000pt" viewBox="0 0 720.000000 720.000000"
 preserveAspectRatio="xMidYMid meet">
<metadata>
Created by potrace 1.11, written by Peter Selinger 2001-2013
</metadata>
<g transform="translate(0.000000,720.000000) scale(0.100000,-0.100000)"
fill="#000000" stroke="none">
<path d="M0 3715 l0 -3485 3555 0 3555 0 0 3485 0 3485 -3555 0 -3555 0 0
-3485z m1960 -1320 c372 -9 521 -32 674 -103 90 -43 143 -93 179 -170 20 -42
22 -63 21 -197 -1 -132 -4 -160 -27 -232 -38 -121 -60 -166 -108 -218 -83 -90
-180 -120 -448 -135 -337 -20 -658 -8 -807 30 -235 59 -394 210 -449 425 -40
158 -44 345 -8 427 37 83 128 136 271 158 77 12 367 28 427 24 22 -2 146 -6
275 -9z"/>
</g>
</svg>
